<?xml version="1.0" encoding="UTF-8"?>
<svg width="313px" height="313px" viewBox="0 0 313 313" version="1.1" xmlns="http://www.w3.org/2000/svg" xmlns:xlink="http://www.w3.org/1999/xlink">
    <title>changan</title>
    <g id="changan" stroke="none" stroke-width="1" fill="none" fill-rule="evenodd">
        <g id="Changan" transform="translate(0.000000, 20.866667)" fill="#000000" fill-rule="nonzero">
            <path d="M156.531939,0.0318805108 C166.752347,0.382566129 176.972755,0.605729705 187.193163,1.14769839 C201.916939,1.91283065 216.544898,3.63437823 230.949286,6.7905488 C243.181837,9.4685117 255.031122,13.2304119 266.177755,19.0645454 C287.001837,29.9357996 300.671633,46.7049483 307.378776,69.1169471 C309.806122,77.2464778 311.275306,85.5354105 312.105714,93.9518655 C313.25551,105.652013 313.191633,117.352161 312.457041,129.052307 C311.626633,142.378361 310.093571,155.608773 307.857857,168.743543 C305.526327,182.515924 302.204694,196.033261 296.83898,208.976749 C292.271735,219.975524 286.331122,230.081647 278.186735,238.848787 C269.722959,247.966613 259.598367,254.757162 248.228163,259.698641 C239.221429,263.619944 229.863367,266.297907 220.249796,268.274498 C210.125204,270.346731 199.904796,271.558191 189.62051,272.323323 C174.992551,273.40726 160.364592,273.694185 145.704694,273.311619 C138.007449,273.120336 130.342143,272.801531 122.676837,272.259562 C107.442041,271.175625 92.3669389,268.943989 77.7070409,264.448837 C67.3908163,261.292667 57.6494898,256.956917 48.7066327,250.835859 C36.7295918,242.610687 27.595102,231.835075 20.7282653,219.05099 C14.9473469,208.243496 11.0508163,196.734632 8.14438779,184.875082 C5.58928571,174.450155 3.86459184,163.897706 2.55510204,153.281496 C0.958163269,140.274247 -0.0319387755,127.235119 -0.0014659776,114.132229 C0.0319387755,103.356616 0.766530611,92.6128841 2.77867347,81.996674 C5.17408163,69.4038722 9.2622449,57.4486804 16.3207143,46.6093068 C23.8263265,35.1004424 33.855102,26.3651824 45.8321429,19.7977972 C55.7331633,14.3781103 66.304898,10.6799711 77.2279591,7.97012769 C87.065102,5.51532837 97.03,3.88942232 107.058776,2.74172393 C123.507245,0.860773795 139.987653,0.286924597 156.531939,0.255044086 C156.531939,0.159402554 156.531939,0.0956415327 156.531939,0.0318805108 Z M156.468061,13.1347704 C144.618776,13.3260535 132.76949,13.7086196 120.952143,14.792557 C111.849592,15.6214503 102.810918,16.8966707 93.8680611,18.8732624 C84.094796,21.0411371 74.6409181,24.0379051 65.6661224,28.5330571 C52.1879592,35.2917255 41.4884694,44.9515202 34.1744898,58.2456932 C28.3935714,68.7662619 25.2955102,80.147604 23.5388776,91.9433935 C22.3571429,99.8178794 21.8461224,107.756126 21.7822449,115.694374 C21.6544898,129.243591 22.4210204,142.729047 24.1776531,156.182622 C25.4552041,165.874298 27.1479592,175.470331 29.5753061,184.906963 C32.4817347,196.097022 36.3463265,206.904515 42.1591837,216.946876 C49.0579592,228.838306 58.2882653,238.40246 70.2333671,245.28865 C79.0484691,250.389532 88.5662242,253.736986 98.435306,256.064263 C111.721837,259.188553 125.263878,260.591295 138.869796,261.037622 C148.323673,261.324547 157.80949,261.356428 167.295306,261.260786 C179.783367,261.133264 192.23949,260.176848 204.599796,258.104615 C213.287143,256.638112 221.814796,254.533998 230.055,251.409708 C246.950612,244.937964 260.332959,234.226113 269.69102,218.636543 C275.376122,209.136151 279.272653,198.902507 282.21102,188.286297 C284.989694,178.180175 286.842143,167.91465 288.279388,157.553485 C289.588878,147.989331 290.451224,138.361417 290.898367,128.733503 C291.377449,118.404217 291.313571,108.106812 290.291531,97.8094074 C289.429184,89.2016693 287.896122,80.689573 285.245204,72.4325208 C279.176837,53.5911387 267.678878,39.2449088 250.14449,29.8401581 C241.041939,24.96244 231.36449,21.7106278 221.367653,19.3833506 C208.304694,16.3228215 195.018163,14.792557 181.635816,14.0593053 C173.235918,13.5810976 164.867959,13.421695 156.468061,13.1347704 Z" id="Shape"></path>
            <path d="M157.522041,246.372587 C147.589082,246.372587 138.869796,246.021902 130.182449,245.033606 C118.301224,243.662744 106.739388,241.144184 95.7205101,236.362107 C78.8568369,229.02959 66.2090816,217.106278 57.4897959,201.006621 C51.9005102,190.741096 48.2914286,179.7742 45.7363265,168.392858 C43.6603061,159.115629 42.3827551,149.742759 41.4884694,140.306128 C40.6580612,131.602748 40.3067347,122.867489 40.69,114.132229 C41.2329592,101.539427 43.1812245,89.2335497 47.940102,77.4696413 C55.1263265,59.7440772 67.6782653,47.2150365 84.9890819,39.2767893 C94.027755,35.1323229 103.513571,32.4862405 113.286837,30.7328124 C130.214388,27.7041639 147.333571,27.1303147 164.484694,27.4810003 C171.89449,27.6404028 179.272347,28.0548495 186.650204,28.8837427 C200.383878,30.4140073 213.830102,33.1557312 226.573673,38.7667011 C238.295204,43.9313439 248.292041,51.2957419 255.957347,61.6569079 C262.025714,69.8820797 265.986122,79.0636666 268.477347,88.9147449 C271.383776,100.296087 272.278061,111.900593 272.118367,123.60074 C271.990612,132.240359 271.25602,140.879977 270.170102,149.455834 C268.796735,160.295208 266.752653,170.97518 263.43102,181.400107 C260.013571,192.111958 255.35051,202.21808 248.611429,211.304025 C239.18949,224.05623 226.861122,232.855251 212.041531,238.338699 C204.440102,241.144184 196.615102,242.993253 188.598469,244.204713 C177.89898,245.830618 167.135612,246.340707 157.522041,246.372587 Z M212.808061,46.2905017 C212.776122,46.7687093 212.776122,46.9281119 212.776122,47.0875144 C212.84,54.0374658 212.903878,60.9874171 212.999694,67.9373685 C213.255204,84.5789954 213.574592,101.188741 213.734286,117.830368 C213.862041,129.275471 211.626327,140.306128 206.675816,150.667294 C201.916939,160.582133 196.870612,170.40133 191.792347,180.156767 C182.817551,197.372242 173.715,214.492077 163.558469,231.069942 C163.366837,231.388747 163.239082,231.707552 163.111327,232.058238 C162.823878,233.014653 163.111327,233.716025 164.06949,233.971069 C164.931837,234.194232 165.826122,234.353635 166.688469,234.321754 C172.309694,233.971069 177.962857,233.716025 183.584082,233.174056 C190.866122,232.472685 197.988469,230.94242 204.919184,228.647023 C218.365408,224.215633 229.607857,216.659951 238.231327,205.374251 C244.810714,196.766512 249.218265,187.106718 252.348265,176.809313 C255.60602,166.097461 257.394592,155.098685 258.416633,143.972387 C259.406735,133.228655 259.726122,122.484922 258.73602,111.70931 C258.065306,104.281151 256.755816,96.9486336 254.520102,89.8392795 C249.09051,72.4962816 238.710408,59.2021085 222.421633,50.7856537 C219.387449,49.1597476 216.129694,47.8207662 212.808061,46.2905017 Z M100.926531,48.4583764 C99.8406121,48.8409426 98.9143879,49.1278671 98.020102,49.4785527 C89.3966329,52.6028428 81.5716329,57.0661143 74.960306,63.5059775 C67.3269388,70.9341367 62.3444898,79.9563209 59.1186735,90.0305627 C55.6373469,100.965578 54.4236735,112.251278 54.2959184,123.696382 C54.1681633,135.555932 55.062449,147.319841 57.1384694,159.019988 C58.7673469,168.297216 61.1308163,177.351282 64.6760204,186.118422 C68.572551,195.714456 73.7785711,204.513477 80.9967349,212.005397 C90.610306,221.983997 102.395714,228.105055 115.746122,231.484389 C121.686735,233.014653 127.723163,234.03483 133.823469,234.513037 C138.23102,234.863723 142.638571,235.118767 147.046122,235.31005 C148.004286,235.341931 149.026327,234.991245 149.952551,234.67244 C150.591327,234.449276 150.782959,233.971069 150.335816,233.269698 C149.281837,231.643791 148.259796,229.954124 147.269694,228.264457 C133.53602,204.545357 121.01602,180.156767 108.49602,155.768176 C102.523469,144.16367 99.8406121,131.762151 99.9683671,118.723022 C100.064184,110.019643 99.9683671,101.316264 100.064184,92.6128841 C100.223878,79.5737553 100.511327,66.5665065 100.734898,53.5273776 C100.734898,51.9014716 100.862653,50.243685 100.926531,48.4583764 Z M116.06551,43.4212557 C116.225204,43.8357023 116.289082,44.0588659 116.384898,44.31391 C124.848673,65.8013743 133.312449,87.2888385 141.744286,108.776303 C143.72449,113.813423 145.80051,118.818664 147.557143,123.887665 C149.473469,129.402993 151.102347,135.045844 152.890918,140.593053 C153.11449,141.326304 153.497755,142.027675 153.944898,142.633405 C154.966939,144.068029 157.234592,144.323072 158.607959,143.207255 C158.863469,142.984091 159.087041,142.665286 159.246735,142.346481 C159.534184,141.740751 159.725816,141.103141 159.981327,140.497411 C162.185102,135.747215 164.644388,131.09266 166.560714,126.214942 C177.196327,98.9571056 187.704184,71.6036274 198.275918,44.31391 C198.371735,44.0269854 198.467551,43.7719413 198.595306,43.3893752 C171.064082,39.4361919 143.628673,39.4361919 116.06551,43.4212557 Z" id="Shape"></path>
        </g>
    </g>
</svg>