<svg xmlns="http://www.w3.org/2000/svg" xmlns:xlink="http://www.w3.org/1999/xlink" viewBox="0 0 313 313"><defs><style>.cls-1{fill:url(#linear-gradient);}.cls-2{fill:url(#linear-gradient-2);}.cls-3{fill:url(#radial-gradient);}.cls-4{fill:url(#radial-gradient-2);}.cls-5{fill:url(#linear-gradient-3);}.cls-6{fill:none;}</style><linearGradient id="linear-gradient" y1="156.5" x2="313" y2="156.5" gradientUnits="userSpaceOnUse"><stop offset="0" stop-color="#c6cad0"/><stop offset="0" stop-color="#c6cad0"/><stop offset="0.28" stop-color="#a6aab0"/><stop offset="0.54" stop-color="#8f9399"/><stop offset="0.78" stop-color="#81858c"/><stop offset="1" stop-color="#7c8087"/></linearGradient><linearGradient id="linear-gradient-2" x1="1.04" y1="156.49" x2="312.69" y2="156.49" gradientUnits="userSpaceOnUse"><stop offset="0.01" stop-color="#d2d5db"/><stop offset="1" stop-color="#b0b3bb"/></linearGradient><radialGradient id="radial-gradient" cx="96.97" cy="45.8" r="174.02" gradientTransform="translate(10.89 17.88) scale(0.93)" gradientUnits="userSpaceOnUse"><stop offset="0" stop-color="#356da9"/><stop offset="1" stop-color="#002752"/></radialGradient><radialGradient id="radial-gradient-2" cx="24.09" cy="95.28" fx="-7.216898712481726" fy="66.69950174942709" r="150.41" gradientTransform="translate(112.25 22.84) scale(0.9)" gradientUnits="userSpaceOnUse"><stop offset="0" stop-color="#bbd1ec"/><stop offset="0.11" stop-color="#adc6e6"/><stop offset="0.23" stop-color="#98b4dc"/><stop offset="0.44" stop-color="#6892c3"/><stop offset="0.65" stop-color="#356da9"/><stop offset="1" stop-color="#003768"/></radialGradient><linearGradient id="linear-gradient-3" x1="91.7" y1="55.36" x2="225.8" y2="264.68" gradientUnits="userSpaceOnUse"><stop offset="0" stop-color="#fff"/><stop offset="0.39" stop-color="#fff"/><stop offset="0.49" stop-color="#ebebed"/><stop offset="0.71" stop-color="#c5c7cb"/><stop offset="0.89" stop-color="#aeb0b7"/><stop offset="1" stop-color="#a5a8af"/></linearGradient></defs><title>faw_1</title><g id="Layer_2" data-name="Layer 2"><g id="Capa_1" data-name="Capa 1"><path class="cls-1" d="M313,156.49c0,57.62-70.07,104.34-156.5,104.34S0,214.11,0,156.49,70.07,52.17,156.5,52.17,313,98.89,313,156.49Z"/><path class="cls-2" d="M312,156.49c0,57-69.6,103.29-155.45,103.29S1,213.54,1,156.49,70.65,53.21,156.5,53.21,312,99.46,312,156.49Z"/><path class="cls-3" d="M309.52,156.49c0,55.7-68.51,100.85-153,100.85s-153-45.15-153-100.85S72,55.66,156.5,55.66,309.52,100.8,309.52,156.49Z"/><path class="cls-4" d="M308.48,156.49c0,55.14-68.05,99.81-152,99.81s-152-44.67-152-99.81,68-99.79,152-99.79S308.48,101.37,308.48,156.49Z"/><path class="cls-5" d="M296.3,156.49c0,50.71-62.59,91.83-139.8,91.83S16.69,207.2,16.69,156.49s62.6-91.8,139.81-91.8S296.3,105.79,296.3,156.49ZM156.5,73.73c-70.29,0-127.28,37.05-127.28,82.76s57,82.79,127.28,82.79,127.29-37.07,127.29-82.79S226.8,73.73,156.5,73.73Zm-23.24,101.7-19.56,9.81H68.83l5.65,13a9.74,9.74,0,0,0,9.14,6.1h34l15.67-8Zm37.37,30.39V90.07H156l-20.9,8.83a4.7,4.7,0,0,0-2.85,4.34v6.44h4.91a5.11,5.11,0,0,1,5.1,5.12v91a5.11,5.11,0,0,1-5.1,5.13h-6v12h50.51V211h-6A5.11,5.11,0,0,1,170.63,205.82Zm-37.37-35.49v-19H56.46l5.4,12.78a10.07,10.07,0,0,0,9.3,6.2Zm0-29.32V121.94H45.74l5.5,12.9A10.12,10.12,0,0,0,60.56,141Zm64,36.8H179.68v18.1h11.43L207,204.37h22.35a9.76,9.76,0,0,0,9.14-6.1l5.65-13H210.86Zm.8-55.87v-3.39H179.68V141h72.69a10.12,10.12,0,0,0,9.32-6.17l5.5-12.9Zm-18.35,48.39h62.1a10.08,10.08,0,0,0,9.3-6.2l5.4-12.78h-76.8Z"/><rect class="cls-6" width="313" height="313"/></g></g></svg>