<svg xmlns="http://www.w3.org/2000/svg" viewBox="0 0 313 313"><defs><style>.cls-1{fill:#231f20;fill-rule:evenodd;}.cls-2{fill:none;}</style></defs><title>hummer</title><g id="Layer_2" data-name="Layer 2"><g id="Layer_1-2" data-name="Layer 1"><polygon class="cls-1" points="28.15 152.8 18.97 152.8 18.97 140.1 0 140.1 0 173.3 18.97 173.3 18.97 160.45 28.15 160.45 28.15 173.3 47.12 173.3 47.12 140.1 28.15 140.1 28.15 152.8 28.15 152.8"/><path class="cls-1" d="M78.33,162.28a4.74,4.74,0,1,1-9.48,0V140.1h-19v22.49c0,3.36,2.91,10.71,13.77,10.71H83.53c10.87,0,13.77-7.35,13.77-10.71V140.1h-19v22.18Z"/><polygon class="cls-1" points="128.97 153.56 121.48 140.1 99.75 140.1 99.75 173.3 117.19 173.3 117.19 159.07 125 173.3 132.95 173.3 140.75 159.07 140.75 173.3 158.2 173.3 158.2 140.1 136.47 140.1 128.97 153.56 128.97 153.56"/><polygon class="cls-1" points="189.87 153.56 182.37 140.1 160.65 140.1 160.65 173.3 178.09 173.3 178.09 159.07 185.89 173.3 193.85 173.3 201.65 159.07 201.65 173.3 219.09 173.3 219.09 140.1 197.37 140.1 189.87 153.56 189.87 153.56"/><polygon class="cls-1" points="221.24 173.3 258.26 173.3 258.26 164.12 240.82 164.12 240.82 160.45 258.26 160.45 258.26 152.8 240.82 152.8 240.82 149.28 258.26 149.28 258.26 140.1 221.24 140.1 221.24 173.3 221.24 173.3"/><path class="cls-1" d="M308.45,151.11c0-4.13-2.61-11-9.95-11H260.71v33.2h19v-9.64l8.11,9.64H311.2l-9.95-11.78c4,.15,7.2-6.28,7.2-10.41Zm-23.57,4.29h-5.2v-7.5h5.82c4.74,0,4.28,7.5-.62,7.5Z"/><path class="cls-1" d="M310.19,139.7a2.78,2.78,0,1,0,2.81,2.77,2.77,2.77,0,0,0-2.81-2.77Zm0,5.09a2.32,2.32,0,1,1,2.25-2.32,2.24,2.24,0,0,1-2.25,2.32Z"/><path class="cls-1" d="M311.47,141.79c0-.63-.37-.91-1.13-.91h-1.22v3.2h.49v-1.39h.56l.84,1.39h.54l-.91-1.41a.83.83,0,0,0,.83-.88Zm-1.86.49v-1h.66c.34,0,.7.07.7.47s-.37.52-.78.52Z"/><rect class="cls-2" width="313" height="313"/></g></g></svg>