<svg id="Layer_1" data-name="Layer 1" xmlns="http://www.w3.org/2000/svg" viewBox="0 0 313 313"><defs><style>.cls-1{fill:#e5031e;}</style></defs><title>MG</title><g id="WtCpL6"><path class="cls-1" d="M0,144.17c.36-11.71.54-21.62,1.08-31.35.18-5.58.72-11.16,1.44-16.57a9.71,9.71,0,0,1,1.62-4c3.61-4.86,7.39-9.55,11.17-14.05C27.92,63.65,41.07,49.42,55.12,36.09,66.65,25.28,78.54,15,90.42,4.39a7.2,7.2,0,0,1,3.79-1.62c6.12-.72,12.43-1.45,18.73-1.63C121.77.78,130.77.6,139.6.42,146.8.24,153.83.06,161,.24c16.22.36,32.61.72,48.82,2.53,2.52.36,5.22.54,7.74.72A10.27,10.27,0,0,1,223.9,6c7,5.94,14.41,11.71,21.25,18,7.93,7.21,15.49,14.59,23.06,22.34,13.15,13.51,25.76,27.38,37.65,42a10.32,10.32,0,0,1,1.8,3.42c1.08,6.12,2.16,12.07,2.7,18.19,1.08,11.17,2,22.52,2.34,33.87.36,13,.36,26.11.18,39.26-.18,7.75-.9,15.49-1.44,23.24a81.64,81.64,0,0,1-1.26,9.55,7.75,7.75,0,0,1-1.62,4c-5.59,7.2-10.81,14.77-16.93,21.43-10.09,11-20.36,21.8-31.17,32.25C248.4,285,235.79,295.83,223.54,307a5.49,5.49,0,0,1-2.88,1.44c-7.57,1.08-15.13,2.16-22.7,2.88-10.09.73-20.17,1.27-30.26,1.45-11.53.18-23.06,0-34.59-.72-12.24-.73-24.49-2.35-36.74-3.43A9.52,9.52,0,0,1,91,306.1c-7.2-5.76-14.41-11.35-21.43-17.47A452.42,452.42,0,0,1,32.78,253.5C24,244.14,15.49,234.23,7,224.5a6.48,6.48,0,0,1-1.62-4C4.14,207.75,2.7,195,2,182,.72,168.66.36,155.51,0,144.17Zm29.36,2.88c.36,10.09.72,20.89,1.44,31.88.54,9.55,1.62,19.09,2.52,28.64a11.09,11.09,0,0,0,2.35,6.67A454.38,454.38,0,0,0,68.09,249a403.38,403.38,0,0,0,31,27.2c3.42,2.7,6.66,5.76,11.53,5.76a37.11,37.11,0,0,1,4.68.54c12.07.9,24,2,36,2.53,7.56.36,14.95,0,22.51-.18A260.32,260.32,0,0,0,207.15,282c1.62-.18,3.42-.54,4.5-1.62,11.71-10.62,23.6-21.07,35.12-32.06,6.49-6.12,12.61-12.61,18.56-19.27,5.4-6.13,10.45-12.79,15.49-19.46a9,9,0,0,0,1.62-3.78c.72-8.65,1.8-17.11,2.16-25.76a391.22,391.22,0,0,0-.9-45.93c-.72-8.47-1.44-16.93-2.52-25.4A16.16,16.16,0,0,0,279,102c-6.13-7.57-12.61-15-19.28-22.16-8.82-9.37-17.83-18.55-27-27.38-6.48-6.3-13.68-11.71-20.53-17.65a7.1,7.1,0,0,0-4.86-1.8c-2.52-.18-5.05-.54-7.57-.72-11.35-.72-22.69-1.62-34-1.8-14.41-.18-29,.18-43.41.54-5.23.18-10.45.72-15.85,1.26a5.85,5.85,0,0,0-3.07,1.26C92.59,43.29,81.6,52.66,71.15,62.93,61.78,72.12,53,82,44,91.75c-4,4.32-7.38,8.83-11,13.51a7.55,7.55,0,0,0-1.44,4c-.36,2.88-.54,5.59-.72,8.47C30.08,127.41,29.72,136.78,29.36,147.05Z"/><path class="cls-1" d="M81.06,124c.72-1.26,1.44-2,2-2.88,6.3-15,12.43-29.72,18.73-44.67Q108,61.58,114.2,46.72a5.23,5.23,0,0,1,4.68-3.43c3.07-.18,6-.54,9-.54l15.85-.54c2.88,0,3.42.54,3.42,3.25.18,12.24.18,24.67.36,36.92.18,9.19.18,18.38.36,27.38.18,9.73.18,19.46.37,29.18.18,9.19.18,18.38.36,27.38.18,9.73.18,19.46.36,29.18.18,9.37.18,18.74.36,28.1.18,10.09.18,20.36.36,30.44,0,4.51.18,9,.18,13.51,0,3.25-1.08,4.33-4.33,4.51-8.64.18-17.11.18-25.76.36-3.42,0-4.32-1.08-4.32-4.51-.18-11.34-.18-22.69-.36-34-.18-10.81-.36-21.62-.72-32.6-.18-12.25-.36-24.5-.72-36.75-.18-10.63-.54-21.25-.72-32.24-1.62,4.14-3.06,7.92-4.5,11.71-5.41,14.23-11,28.46-16.39,42.87a44.7,44.7,0,0,1-1.63,4.32c-.9,2.16-2.34,2.7-4.32,1.44a7.22,7.22,0,0,1-2.7-2.52c-5.22-7.93-10.27-16-15.31-24a13.74,13.74,0,0,0-1.44-2h-.72a14.35,14.35,0,0,0-.54,2.7c.54,8.11,1.26,16.21,1.8,24.32.36,5.22.72,10.45,1.08,15.85.36,6.12.9,12.07,1.26,18.19a11.14,11.14,0,0,1-.36,3.43c-.36,1.44-1.44,1.8-2.52.9a7.83,7.83,0,0,1-1.26-1.08c-5.41-5.41-10.81-10.63-16-16-.73-.72-1.27-1.44-1.81-2-4.14-3.6-4.14-8.46-4.32-13.33-.36-10.8-.9-21.61-1.08-32.42-.18-9.55-.36-19.09-.18-28.64,0-7,.36-14,.54-20.89A9.33,9.33,0,0,1,45,108.86c4.51-4.86,8.83-10.09,13.33-15,2.16-2.34,3.06-2.16,4.68.54l16.22,27A7.32,7.32,0,0,0,81.06,124Z"/><path class="cls-1" d="M199.76,76.26c.36,53.5.72,107.17,1.08,160.67.18,0,.36.18.54.18.36-.36.9-.54,1.26-.9,10.45-10.45,20.72-21.07,31-31.7,4.32-4.5,8.46-9.19,12.6-13.87a4.05,4.05,0,0,0,1.09-2.88c.18-2.16,0-4.33,0-6.49,0-2.52-.36-2.88-2.89-2.88H231.64c-2.7,0-3.42-.72-3.42-3.42V153.71c0-2.16.54-2.7,2.7-2.7h38.37c2,0,2.7.72,2.7,2.7L271.45,184c0,4.87-.18,9.73-.18,14.41a11.29,11.29,0,0,1-3.24,8.11c-14.23,14.59-28.28,29.36-42.51,44.13-4.32,4.5-8.65,8.83-13,13.33s-9.37,7.21-15.85,7.21c-7.93,0-15.85.72-23.78,1.08-4.5.18-6.3-1.62-6.3-6.31-.18-15-.18-30.08-.36-45-.18-11.35-.18-22.88-.36-34.22-.18-11.71-.18-23.6-.36-35.31-.18-11.53-.18-23.24-.36-34.76-.18-11.17-.18-22.52-.36-33.69-.18-11.71-.18-23.41-.36-35.12V46.54c-.18-3.61.54-4.51,4.14-4.33,10.45.18,20.89.18,31.34.54a8.08,8.08,0,0,1,4.87,1.81A146.07,146.07,0,0,1,216,54.46c12.25,11.71,24.5,23.42,36.39,35.49,5.76,5.76,11.17,12.07,16.57,18.37a10.27,10.27,0,0,1,2,5c.36,5.59.54,11.35.72,16.94.18,2.88-.54,3.6-3.42,3.6H250.92c-2.34,0-2.88-.72-3.06-2.88v-6.49a3.42,3.42,0,0,0-.9-2.34C232,107.06,216.87,92.11,201.74,77a10,10,0,0,0-1.44-1.08C200.3,76.08,200.12,76.08,199.76,76.26Z"/></g></svg>