<?xml version="1.0" encoding="UTF-8" standalone="no"?>
<!DOCTYPE svg PUBLIC "-//W3C//DTD SVG 1.1//EN" "http://www.w3.org/Graphics/SVG/1.1/DTD/svg11.dtd">
<svg width="100%" height="100%" viewBox="0 0 3664 1051" version="1.1" xmlns="http://www.w3.org/2000/svg" xmlns:xlink="http://www.w3.org/1999/xlink" xml:space="preserve" xmlns:serif="http://www.serif.com/" style="fill-rule:evenodd;clip-rule:evenodd;stroke-linejoin:round;stroke-miterlimit:2;"><rect id="Artboard1" x="0" y="0" width="3663.15" height="1050.97" style="fill:none;"/><path d="M623.78,693.862c0.959,6.208 1.459,12.583 1.459,19.083c-0,68.417 -55.459,123.875 -123.875,123.875c-68.417,0 -123.875,-55.458 -123.875,-123.875c-0,-6.5 0.5,-12.875 1.458,-19.083c-88.417,-28 -169.333,-85.709 -237.667,-165.667c-44.041,51.5 -82.833,112.25 -115.041,180.25c72.75,191.583 258,327.792 475.083,327.792c217.083,-0 402.375,-136.209 475.083,-327.792c-32.208,-68 -71,-128.75 -115.041,-180.25c-68.334,79.958 -149.25,137.625 -237.667,165.667l0.083,-0Z" style="fill:#e84a3b;fill-rule:nonzero;"/><path d="M378.947,362.528c9.167,59.334 60.5,104.792 122.417,104.792c61.916,0 113.208,-45.417 122.416,-104.792c-39.458,-12.5 -80.416,-19.083 -122.416,-19.083c-42,0 -82.959,6.583 -122.417,19.083Z" style="fill:#6191bd;fill-rule:nonzero;"/><path d="M501.364,219.57c-68.417,0 -123.875,55.458 -123.875,123.875c-0,6.5 0.5,12.875 1.458,19.083c39.458,-12.5 80.417,-19.083 122.417,-19.083c42,0 82.958,6.583 122.416,19.083c0.959,-6.208 1.459,-12.583 1.459,-19.083c-0,-68.417 -55.459,-123.875 -123.875,-123.875Z" style="fill:#3d3d3b;fill-rule:nonzero;"/><path d="M501.364,219.57c-68.417,0 -123.875,55.458 -123.875,123.875c-0,6.5 0.5,12.875 1.458,19.083c39.458,-12.5 80.417,-19.083 122.417,-19.083c42,0 82.958,6.583 122.416,19.083c0.959,-6.208 1.459,-12.583 1.459,-19.083c-0,-68.417 -55.459,-123.875 -123.875,-123.875Z" style="fill:#3d3d3b;fill-rule:nonzero;"/><path d="M623.78,693.862c-9.166,-59.334 -60.5,-104.792 -122.416,-104.792c-61.917,0 -113.209,45.417 -122.417,104.792c39.458,12.5 80.417,19.083 122.417,19.083c42,0 82.958,-6.583 122.416,-19.083Z" style="fill:#f3c147;fill-rule:nonzero;"/><path d="M501.364,836.82c68.416,0 123.875,-55.458 123.875,-123.875c-0,-6.5 -0.5,-12.875 -1.459,-19.083c-39.458,12.5 -80.416,19.083 -122.416,19.083c-42,0 -82.959,-6.583 -122.417,-19.083c-0.958,6.208 -1.458,12.583 -1.458,19.083c-0,68.417 55.458,123.875 123.875,123.875Z" style="fill:#3d3d3b;fill-rule:nonzero;"/><path d="M501.364,836.82c68.416,0 123.875,-55.458 123.875,-123.875c-0,-6.5 -0.5,-12.875 -1.459,-19.083c-39.458,12.5 -80.416,19.083 -122.416,19.083c-42,0 -82.959,-6.583 -122.417,-19.083c-0.958,6.208 -1.458,12.583 -1.458,19.083c-0,68.417 55.458,123.875 123.875,123.875Z" style="fill:#e84a3b;fill-rule:nonzero;"/><path d="M141.28,528.195c68.334,-79.958 149.25,-137.625 237.667,-165.667c-0.958,-6.208 -1.458,-12.583 -1.458,-19.083c-0,-68.417 55.458,-123.875 123.875,-123.875c68.416,0 123.875,55.458 123.875,123.875c-0,6.5 -0.5,12.875 -1.459,19.083c88.417,28 169.334,85.709 237.667,165.667c44.042,-51.5 82.833,-112.25 115.042,-180.25c-72.75,-191.583 -258,-327.792 -475.084,-327.792c-217.083,0 -402.375,136.209 -475.083,327.792c32.208,68 71,128.75 115.042,180.25" style="fill:#397c6a;fill-rule:nonzero;"/><path d="M1173.86,972.278c-5.292,0 -9.584,-4.291 -9.584,-9.583l0,-869c0,-5.292 4.292,-9.583 9.584,-9.583c5.291,-0 9.583,4.291 9.583,9.583l0,869c0,5.292 -4.292,9.583 -9.583,9.583Z" style="fill:#3d3d3b;fill-rule:nonzero;"/><g><path d="M1480.74,288.278c-0,-7.416 -2.584,-13.083 -7.792,-17.125c-5.208,-4 -14.583,-8.041 -28.167,-12.125c-13.583,-4.083 -24.375,-8.625 -32.375,-13.625c-15.333,-9.625 -23,-22.208 -23,-37.708c0,-13.583 5.542,-24.75 16.584,-33.542c11.041,-8.791 25.416,-13.166 43.083,-13.166c11.708,-0 22.167,2.166 31.333,6.458c9.167,4.333 16.375,10.458 21.625,18.458c5.25,7.959 7.875,16.834 7.875,26.542l-29.125,0c0,-8.792 -2.75,-15.667 -8.25,-20.625c-5.5,-4.958 -13.416,-7.458 -23.666,-7.458c-9.542,-0 -17,2.041 -22.25,6.125c-5.292,4.083 -7.917,9.791 -7.917,17.125c0,6.166 2.833,11.333 8.542,15.416c5.708,4.125 15.125,8.125 28.208,12.042c13.083,3.875 23.625,8.333 31.583,13.292c7.917,4.958 13.75,10.666 17.459,17.125c3.708,6.458 5.541,13.958 5.541,22.625c0,14.041 -5.375,25.208 -16.125,33.458c-10.75,8.292 -25.333,12.417 -43.75,12.417c-12.166,-0 -23.375,-2.25 -33.583,-6.75c-10.208,-4.5 -18.167,-10.75 -23.833,-18.667c-5.667,-7.917 -8.5,-17.167 -8.5,-27.75l29.25,0c-0,9.542 3.166,16.958 9.5,22.208c6.333,5.25 15.375,7.875 27.166,7.875c10.167,0 17.834,-2.041 22.959,-6.166c5.125,-4.125 7.708,-9.584 7.708,-16.375l-0.083,-0.084Z" style="fill:#3d3d3b;fill-rule:nonzero;"/><path d="M1588.03,333.987c-17.791,-0 -32.25,-5.625 -43.291,-16.834c-11.084,-11.208 -16.584,-26.166 -16.584,-44.791l0,-3.459c0,-12.5 2.417,-23.666 7.209,-33.458c4.833,-9.833 11.583,-17.458 20.291,-22.958c8.709,-5.459 18.417,-8.209 29.125,-8.209c17.042,0 30.209,5.417 39.5,16.292c9.292,10.875 13.917,26.25 13.917,46.125l0,11.333l-81.75,0c0.833,10.334 4.292,18.5 10.333,24.5c6.042,6 13.667,9 22.834,9c12.875,0 23.375,-5.208 31.458,-15.625l15.167,14.459c-5,7.5 -11.709,13.291 -20.084,17.416c-8.375,4.125 -17.75,6.167 -28.166,6.167l0.041,0.042Zm-3.333,-107.209c-7.708,0 -13.917,2.709 -18.667,8.084c-4.75,5.416 -7.75,12.916 -9.083,22.541l53.542,0l-0,-2.083c-0.625,-9.417 -3.125,-16.5 -7.5,-21.333c-4.375,-4.834 -10.5,-7.209 -18.25,-7.209l-0.042,0Z" style="fill:#3d3d3b;fill-rule:nonzero;"/><path d="M1686.11,206.528l0.791,14.459c9.25,-11.167 21.375,-16.75 36.417,-16.75c26.042,-0 39.333,14.916 39.792,44.75l-0,82.666l-28.084,0l0,-81.041c0,-7.917 -1.708,-13.834 -5.125,-17.625c-3.416,-3.834 -9.041,-5.709 -16.833,-5.709c-11.333,0 -19.792,5.125 -25.333,15.375l-0,89.042l-28.084,0l0,-125.125l26.5,0l-0.041,-0.042Z" style="fill:#3d3d3b;fill-rule:nonzero;"/><path d="M1861.86,297.653c-0,-5 -2.084,-8.833 -6.167,-11.458c-4.125,-2.625 -10.958,-4.917 -20.542,-6.958c-9.541,-2 -17.541,-4.542 -23.916,-7.625c-14.042,-6.792 -21.042,-16.625 -21.042,-29.5c0,-10.792 4.542,-19.792 13.625,-27.042c9.083,-7.25 20.667,-10.875 34.708,-10.875c14.959,0 27.042,3.708 36.25,11.083c9.209,7.417 13.834,17 13.834,28.792l-28.084,0c0,-5.375 -2,-9.875 -6,-13.458c-4,-3.584 -9.333,-5.375 -15.958,-5.375c-6.167,-0 -11.208,1.416 -15.083,4.291c-3.875,2.875 -5.834,6.667 -5.834,11.459c0,4.333 1.792,7.666 5.417,10.041c3.625,2.375 10.958,4.792 21.958,7.209c11.042,2.416 19.667,5.333 25.959,8.666c6.291,3.334 10.958,7.375 14,12.084c3.041,4.708 4.583,10.416 4.583,17.125c0,11.25 -4.667,20.375 -14,27.333c-9.333,7 -21.542,10.458 -36.667,10.458c-10.25,0 -19.375,-1.833 -27.416,-5.541c-8.042,-3.709 -14.25,-8.792 -18.75,-15.25c-4.459,-6.459 -6.709,-13.459 -6.709,-20.917l27.292,0c0.375,6.625 2.875,11.75 7.5,15.333c4.625,3.584 10.75,5.375 18.375,5.375c7.625,0 13.042,-1.416 16.875,-4.208c3.833,-2.792 5.792,-6.5 5.792,-11.042Z" style="fill:#3d3d3b;fill-rule:nonzero;"/><path d="M1914.03,174.028c0,-4.333 1.375,-7.916 4.125,-10.75c2.75,-2.833 6.667,-4.291 11.75,-4.291c5.084,-0 9,1.416 11.792,4.291c2.792,2.875 4.167,6.459 4.167,10.75c-0,4.292 -1.375,7.75 -4.167,10.584c-2.792,2.833 -6.708,4.208 -11.792,4.208c-5.083,0 -9,-1.417 -11.75,-4.208c-2.75,-2.792 -4.125,-6.334 -4.125,-10.584Zm29.834,157.625l-28.084,0l0,-125.125l28.084,0l-0,125.125Z" style="fill:#3d3d3b;fill-rule:nonzero;"/><path d="M2084.24,270.362c-0,19.416 -4.334,34.875 -13,46.375c-8.667,11.5 -20.625,17.25 -35.792,17.25c-15.167,-0 -26.042,-5.292 -34.208,-15.834l-1.375,13.542l-25.459,0l0,-177.625l28.084,0l-0,64.542c8.083,-9.542 19,-14.334 32.708,-14.334c15.25,0 27.25,5.667 35.958,17c8.709,11.334 13.084,27.167 13.084,47.542l-0,1.625l-0,-0.083Zm-28.084,-2.417c0,-13.583 -2.375,-23.75 -7.166,-30.542c-4.792,-6.791 -11.709,-10.166 -20.834,-10.166c-12.166,-0 -20.75,5.333 -25.666,15.958l-0,51.583c5,10.875 13.625,16.292 25.916,16.292c8.792,0 15.584,-3.292 20.334,-9.833c4.791,-6.542 7.25,-16.459 7.416,-29.709l0,-3.583Z" style="fill:#3d3d3b;fill-rule:nonzero;"/><path d="M2107.82,174.028c0,-4.333 1.375,-7.916 4.125,-10.75c2.75,-2.833 6.667,-4.291 11.75,-4.291c5.083,-0 9,1.416 11.792,4.291c2.791,2.875 4.166,6.459 4.166,10.75c0,4.292 -1.375,7.75 -4.166,10.584c-2.792,2.833 -6.709,4.208 -11.792,4.208c-5.083,0 -9,-1.417 -11.75,-4.208c-2.75,-2.792 -4.125,-6.334 -4.125,-10.584Zm29.833,157.625l-28.083,0l0,-125.125l28.083,0l0,125.125Z" style="fill:#3d3d3b;fill-rule:nonzero;"/><rect x="2170.07" y="154.028" width="28.083" height="177.625" style="fill:#3d3d3b;fill-rule:nonzero;"/><path d="M2228.78,174.028c0,-4.333 1.375,-7.916 4.125,-10.75c2.75,-2.833 6.667,-4.291 11.75,-4.291c5.084,-0 9,1.416 11.792,4.291c2.792,2.875 4.167,6.459 4.167,10.75c-0,4.292 -1.375,7.75 -4.167,10.584c-2.792,2.833 -6.708,4.208 -11.792,4.208c-5.083,0 -9,-1.417 -11.75,-4.208c-2.75,-2.792 -4.125,-6.334 -4.125,-10.584Zm29.834,157.625l-28.084,0l0,-125.125l28.084,0l-0,125.125Z" style="fill:#3d3d3b;fill-rule:nonzero;"/><path d="M2319.2,309.237l66.625,-0l0,22.416l-101.542,0l0,-18.375l63.5,-84.083l-62.333,0l0,-22.667l97.958,0l0,17.792l-64.166,84.875l-0.042,0.042Z" style="fill:#3d3d3b;fill-rule:nonzero;"/><path d="M2483.07,331.653c-1.25,-2.375 -2.333,-6.291 -3.25,-11.666c-8.958,9.333 -19.875,14 -32.833,14c-12.959,-0 -22.834,-3.584 -30.75,-10.75c-7.959,-7.167 -11.917,-16.042 -11.917,-26.584c0,-13.333 4.958,-23.583 14.875,-30.708c9.917,-7.125 24.083,-10.708 42.5,-10.708l17.25,-0l0,-8.209c0,-6.458 -1.833,-11.666 -5.417,-15.541c-3.625,-3.875 -9.125,-5.834 -16.541,-5.834c-6.417,0 -11.625,1.625 -15.709,4.792c-4.083,3.208 -6.125,7.25 -6.125,12.208l-28.083,0c0,-6.875 2.25,-13.291 6.833,-19.25c4.542,-5.958 10.75,-10.666 18.542,-14.041c7.833,-3.375 16.542,-5.084 26.208,-5.084c14.625,0 26.334,3.667 35.042,11.042c8.708,7.375 13.167,17.708 13.417,31.042l-0,56.416c-0,11.25 1.583,20.25 4.75,26.959l-0,1.958l-28.667,0l-0.125,-0.042Zm-30.875,-20.25c5.542,0 10.75,-1.333 15.667,-4.041c4.875,-2.709 8.583,-6.334 11.041,-10.875l0,-23.584l-15.166,0c-10.417,0 -18.25,1.834 -23.459,5.417c-5.25,3.625 -7.875,8.75 -7.875,15.375c0,5.417 1.792,9.708 5.375,12.875c3.584,3.208 8.375,4.792 14.417,4.792l0,0.041Z" style="fill:#3d3d3b;fill-rule:nonzero;"/><path d="M2587.82,311.528c7,0 12.833,-2.041 17.458,-6.125c4.625,-4.083 7.084,-9.125 7.417,-15.166l26.5,-0c-0.292,7.791 -2.75,15.041 -7.292,21.791c-4.541,6.75 -10.708,12.084 -18.5,16c-7.791,3.917 -16.208,5.917 -25.208,5.917c-17.5,0 -31.375,-5.667 -41.625,-17c-10.25,-11.333 -15.375,-27 -15.375,-46.958l0,-2.875c0,-19.042 5.083,-34.292 15.25,-45.75c10.167,-11.459 24.042,-17.167 41.625,-17.167c14.875,0 27,4.333 36.375,13c9.375,8.667 14.292,20.083 14.75,34.167l-26.5,-0c-0.292,-7.167 -2.75,-13.084 -7.333,-17.709c-4.584,-4.625 -10.417,-6.958 -17.5,-6.958c-9.084,0 -16.125,3.292 -21.042,9.875c-4.917,6.583 -7.458,16.583 -7.5,30l0,4.5c0,13.583 2.458,23.708 7.333,30.375c4.875,6.667 11.959,10 21.209,10l-0.042,0.083Z" style="fill:#3d3d3b;fill-rule:nonzero;"/><path d="M2660.45,174.028c0,-4.333 1.375,-7.916 4.125,-10.75c2.75,-2.833 6.667,-4.291 11.75,-4.291c5.083,-0 9,1.416 11.792,4.291c2.791,2.875 4.166,6.459 4.166,10.75c0,4.292 -1.375,7.75 -4.166,10.584c-2.792,2.833 -6.709,4.208 -11.792,4.208c-5.083,0 -9,-1.417 -11.75,-4.208c-2.75,-2.792 -4.125,-6.334 -4.125,-10.584Zm29.833,157.625l-28.083,0l0,-125.125l28.083,0l0,125.125Z" style="fill:#3d3d3b;fill-rule:nonzero;"/><path d="M2715.61,267.945c-0,-12.25 2.416,-23.292 7.291,-33.125c4.875,-9.833 11.667,-17.375 20.459,-22.667c8.791,-5.291 18.875,-7.916 30.291,-7.916c16.875,-0 30.584,5.416 41.125,16.291c10.542,10.875 16.209,25.292 17.042,43.25l0.125,6.584c0,12.333 -2.375,23.375 -7.125,33.083c-4.75,9.708 -11.542,17.25 -20.333,22.542c-8.834,5.333 -19.042,7.958 -30.584,7.958c-17.666,0 -31.791,-5.875 -42.375,-17.625c-10.583,-11.75 -15.916,-27.417 -15.916,-47l-0,-1.375Zm28.083,2.417c0,12.875 2.667,22.958 7.958,30.25c5.334,7.291 12.709,10.916 22.209,10.916c9.5,0 16.875,-3.708 22.125,-11.083c5.291,-7.417 7.916,-18.208 7.916,-32.5c0,-12.625 -2.708,-22.667 -8.166,-30.083c-5.417,-7.417 -12.834,-11.084 -22.125,-11.084c-9.292,0 -16.459,3.625 -21.875,10.917c-5.417,7.292 -8.084,18.167 -8.084,32.667l0.042,-0Zm37.708,-116.334l32.042,0l-32.042,35.042l-22.541,0l22.541,-35.042Z" style="fill:#3d3d3b;fill-rule:nonzero;"/><path d="M2881.78,206.528l0.792,14.459c9.25,-11.167 21.375,-16.75 36.417,-16.75c26.041,-0 39.333,14.916 39.791,44.75l0,82.666l-28.083,0l0,-81.041c0,-7.917 -1.708,-13.834 -5.125,-17.625c-3.417,-3.834 -9.042,-5.709 -16.833,-5.709c-11.334,0 -19.792,5.125 -25.334,15.375l0,89.042l-28.083,0l0,-125.125l26.5,0l-0.042,-0.042Z" style="fill:#3d3d3b;fill-rule:nonzero;"/><path d="M3116.53,297.653c0,-5 -2.083,-8.833 -6.166,-11.458c-4.125,-2.625 -10.959,-4.917 -20.542,-6.958c-9.542,-2 -17.542,-4.542 -23.917,-7.625c-14.041,-6.792 -21.041,-16.625 -21.041,-29.5c-0,-10.792 4.541,-19.792 13.625,-27.042c9.083,-7.25 20.666,-10.875 34.708,-10.875c14.958,0 27.042,3.708 36.25,11.083c9.208,7.417 13.833,17 13.833,28.792l-28.083,0c0,-5.375 -2,-9.875 -6,-13.458c-4,-3.584 -9.333,-5.375 -15.958,-5.375c-6.167,-0 -11.209,1.416 -15.084,4.291c-3.875,2.875 -5.833,6.667 -5.833,11.459c0,4.333 1.792,7.666 5.417,10.041c3.625,2.375 10.958,4.792 21.958,7.209c11.042,2.416 19.667,5.333 25.958,8.666c6.292,3.334 10.959,7.375 14,12.084c3.042,4.708 4.584,10.416 4.584,17.125c-0,11.25 -4.667,20.375 -14,27.333c-9.334,7 -21.542,10.458 -36.667,10.458c-10.25,0 -19.375,-1.833 -27.417,-5.541c-8.041,-3.709 -14.25,-8.792 -18.75,-15.25c-4.458,-6.459 -6.708,-13.459 -6.708,-20.917l27.292,0c0.375,6.625 2.875,11.75 7.5,15.333c4.625,3.584 10.75,5.375 18.375,5.375c7.625,0 13.041,-1.416 16.875,-4.208c3.833,-2.792 5.791,-6.5 5.791,-11.042Z" style="fill:#3d3d3b;fill-rule:nonzero;"/><path d="M3163.36,267.945c-0,-12.25 2.416,-23.292 7.291,-33.125c4.875,-9.833 11.667,-17.375 20.459,-22.667c8.791,-5.291 18.875,-7.916 30.291,-7.916c16.875,-0 30.584,5.416 41.125,16.291c10.542,10.875 16.209,25.292 17.042,43.25l0.125,6.584c0,12.333 -2.375,23.375 -7.125,33.083c-4.75,9.708 -11.542,17.25 -20.333,22.542c-8.834,5.333 -19.042,7.958 -30.584,7.958c-17.666,0 -31.791,-5.875 -42.375,-17.625c-10.583,-11.75 -15.916,-27.417 -15.916,-47l-0,-1.375Zm28.083,2.417c0,12.875 2.667,22.958 7.958,30.25c5.334,7.291 12.709,10.916 22.209,10.916c9.5,0 16.875,-3.708 22.125,-11.083c5.291,-7.417 7.916,-18.208 7.916,-32.5c0,-12.625 -2.708,-22.667 -8.166,-30.083c-5.417,-7.417 -12.834,-11.084 -22.125,-11.084c-9.292,0 -16.459,3.625 -21.875,10.917c-5.417,7.292 -8.084,18.167 -8.084,32.667l0.042,-0Z" style="fill:#3d3d3b;fill-rule:nonzero;"/><path d="M3413.24,270.362c-0,19.416 -4.334,34.875 -13,46.375c-8.667,11.5 -20.625,17.25 -35.792,17.25c-15.167,-0 -26.042,-5.292 -34.208,-15.834l-1.375,13.542l-25.459,0l0,-177.625l28.084,0l-0,64.542c8.083,-9.542 19,-14.334 32.708,-14.334c15.25,0 27.25,5.667 35.958,17c8.709,11.334 13.084,27.167 13.084,47.542l-0,1.625l-0,-0.083Zm-28.084,-2.417c0,-13.583 -2.375,-23.75 -7.166,-30.542c-4.792,-6.791 -11.709,-10.166 -20.834,-10.166c-12.166,-0 -20.75,5.333 -25.666,15.958l-0,51.583c5,10.875 13.625,16.292 25.916,16.292c8.792,0 15.584,-3.292 20.334,-9.833c4.791,-6.542 7.25,-16.459 7.416,-29.709l0,-3.583Z" style="fill:#3d3d3b;fill-rule:nonzero;"/><path d="M3502.28,232.195c-3.708,-0.625 -7.5,-0.917 -11.458,-0.917c-12.875,0 -21.542,4.917 -26,14.792l0,85.583l-28.083,0l-0,-125.125l26.833,0l0.708,14c6.792,-10.875 16.209,-16.291 28.209,-16.291c4,-0 7.333,0.541 9.958,1.625l-0.125,26.375l-0.042,-0.042Z" style="fill:#3d3d3b;fill-rule:nonzero;"/><path d="M3572.95,333.987c-17.792,-0 -32.25,-5.625 -43.292,-16.834c-11.083,-11.208 -16.583,-26.166 -16.583,-44.791l0,-3.459c0,-12.5 2.417,-23.666 7.208,-33.458c4.834,-9.833 11.584,-17.458 20.292,-22.958c8.708,-5.459 18.417,-8.209 29.125,-8.209c17.042,0 30.208,5.417 39.5,16.292c9.292,10.875 13.917,26.25 13.917,46.125l-0,11.333l-81.75,0c0.833,10.334 4.291,18.5 10.333,24.5c6.042,6 13.667,9 22.833,9c12.875,0 23.375,-5.208 31.459,-15.625l15.166,14.459c-5,7.5 -11.708,13.291 -20.083,17.416c-8.375,4.125 -17.75,6.167 -28.167,6.167l0.042,0.042Zm-3.333,-107.209c-7.709,0 -13.917,2.709 -18.667,8.084c-4.75,5.416 -7.75,12.916 -9.083,22.541l53.541,0l0,-2.083c-0.625,-9.417 -3.125,-16.5 -7.5,-21.333c-4.375,-4.834 -10.5,-7.209 -18.25,-7.209l-0.041,0Z" style="fill:#3d3d3b;fill-rule:nonzero;"/><rect x="1391.82" y="438.237" width="28.083" height="177.625" style="fill:#3d3d3b;fill-rule:nonzero;"/><path d="M1525.28,615.862c-1.25,-2.375 -2.333,-6.292 -3.25,-11.667c-8.958,9.333 -19.875,14 -32.833,14c-12.958,0 -22.833,-3.583 -30.75,-10.75c-7.958,-7.167 -11.917,-16.042 -11.917,-26.583c0,-13.334 4.959,-23.584 14.875,-30.709c9.917,-7.125 24.084,-10.708 42.5,-10.708l17.25,0l0,-8.208c0,-6.459 -1.833,-11.667 -5.416,-15.542c-3.625,-3.875 -9.125,-5.833 -16.542,-5.833c-6.417,-0 -11.625,1.625 -15.708,4.791c-4.084,3.209 -6.125,7.25 -6.125,12.209l-28.084,-0c0,-6.875 2.25,-13.292 6.834,-19.25c4.541,-5.959 10.75,-10.667 18.541,-14.042c7.834,-3.375 16.542,-5.083 26.209,-5.083c14.625,-0 26.333,3.666 35.041,11.041c8.709,7.375 13.167,17.709 13.417,31.042l0,56.417c0,11.25 1.583,20.25 4.75,26.958l0,1.958l-28.667,0l-0.125,-0.041Zm-30.875,-20.25c5.542,-0 10.75,-1.334 15.667,-4.042c4.875,-2.708 8.583,-6.333 11.042,-10.875l-0,-23.583l-15.167,-0c-10.417,-0 -18.25,1.833 -23.458,5.416c-5.25,3.625 -7.875,8.75 -7.875,15.375c-0,5.417 1.791,9.709 5.375,12.875c3.583,3.209 8.375,4.792 14.416,4.792l0,0.042Z" style="fill:#3d3d3b;fill-rule:nonzero;"/><path d="M1702.24,551.112l-32.667,-0l0,64.75l-29.25,-0l0,-168.375l59.208,-0c19.417,-0 34.417,4.375 45,13.083c10.542,8.708 15.834,21.333 15.834,37.833c-0,11.25 -2.709,20.709 -8.167,28.292c-5.417,7.583 -13,13.458 -22.708,17.542l37.833,70.125l0,1.5l-31.333,-0l-33.75,-64.75Zm-32.667,-23.584l30.083,0c9.875,0 17.584,-2.5 23.125,-7.458c5.542,-4.958 8.334,-11.792 8.334,-20.417c-0,-8.625 -2.584,-16 -7.709,-20.916c-5.125,-4.917 -12.791,-7.459 -22.958,-7.625l-30.875,-0l0,56.416Z" style="fill:#3d3d3b;fill-rule:nonzero;"/><path d="M1840.49,618.153c-17.792,0 -32.25,-5.625 -43.292,-16.833c-11.083,-11.208 -16.583,-26.167 -16.583,-44.792l-0,-3.458c-0,-12.5 2.416,-23.667 7.208,-33.458c4.833,-9.834 11.583,-17.459 20.292,-22.959c8.708,-5.458 18.416,-8.208 29.125,-8.208c17.041,0 30.208,5.417 39.5,16.292c9.291,10.875 13.916,26.25 13.916,46.125l0,11.333l-81.75,0c0.834,10.333 4.292,18.5 10.334,24.5c6.041,6 13.666,9 22.833,9c12.875,0 23.375,-5.208 31.458,-15.625l15.167,14.458c-5,7.5 -11.708,13.292 -20.083,17.417c-8.375,4.125 -17.75,6.167 -28.167,6.167l0.042,0.041Zm-3.334,-107.208c-7.708,0 -13.916,2.708 -18.666,8.083c-4.75,5.417 -7.75,12.917 -9.084,22.542l53.542,0l0,-2.083c-0.625,-9.417 -3.125,-16.5 -7.5,-21.334c-4.375,-4.833 -10.5,-7.208 -18.25,-7.208l-0.042,0Z" style="fill:#3d3d3b;fill-rule:nonzero;"/><path d="M1922.36,615.862l-0,-104.292l-19.084,0l0,-20.833l19.084,-0l-0,-11.459c-0,-13.875 3.833,-24.583 11.583,-32.166c7.708,-7.542 18.5,-11.334 32.375,-11.334c4.917,0 10.167,0.709 15.708,2.084l-0.708,21.958c-3.083,-0.625 -6.667,-0.917 -10.75,-0.917c-13.417,0 -20.125,6.917 -20.125,20.709l0,11.083l25.458,0l0,20.833l-25.458,0l0,104.292l-28.083,0l-0,0.042Z" style="fill:#3d3d3b;fill-rule:nonzero;"/><path d="M1991.15,552.153c0,-12.25 2.417,-23.291 7.292,-33.125c4.875,-9.833 11.667,-17.375 20.458,-22.666c8.792,-5.292 18.875,-7.917 30.292,-7.917c16.875,0 30.583,5.417 41.125,16.292c10.542,10.875 16.208,25.291 17.042,43.25l0.125,6.583c-0,12.333 -2.375,23.375 -7.125,33.083c-4.75,9.709 -11.542,17.25 -20.334,22.542c-8.833,5.333 -19.041,7.958 -30.583,7.958c-17.667,0 -31.792,-5.875 -42.375,-17.625c-10.583,-11.75 -15.917,-27.416 -15.917,-47l0,-1.375Zm28.084,2.417c-0,12.875 2.666,22.958 7.958,30.25c5.333,7.292 12.708,10.917 22.208,10.917c9.5,-0 16.875,-3.709 22.125,-11.084c5.292,-7.416 7.917,-18.208 7.917,-32.5c0,-12.625 -2.708,-22.666 -8.167,-30.083c-5.416,-7.417 -12.833,-11.083 -22.125,-11.083c-9.291,-0 -16.458,3.625 -21.875,10.916c-5.416,7.292 -8.083,18.167 -8.083,32.667l0.042,0Z" style="fill:#3d3d3b;fill-rule:nonzero;"/><path d="M2196.74,516.403c-3.709,-0.625 -7.5,-0.916 -11.459,-0.916c-12.875,-0 -21.541,4.916 -26,14.791l0,85.584l-28.083,-0l0,-125.125l26.833,-0l0.709,14c6.791,-10.875 16.208,-16.292 28.208,-16.292c4,0 7.333,0.542 9.958,1.625l-0.125,26.375l-0.041,-0.042Z" style="fill:#3d3d3b;fill-rule:nonzero;"/><path d="M2240.95,490.737l0.792,13.083c8.791,-10.25 20.833,-15.375 36.083,-15.375c16.708,0 28.167,6.417 34.333,19.208c9.084,-12.791 21.875,-19.208 38.375,-19.208c13.792,0 24.084,3.833 30.834,11.458c6.75,7.625 10.208,18.875 10.333,33.75l0,82.209l-28.083,-0l-0,-81.417c-0,-7.917 -1.75,-13.75 -5.209,-17.458c-3.458,-3.709 -9.208,-5.542 -17.25,-5.542c-6.416,0 -11.625,1.708 -15.666,5.125c-4.042,3.417 -6.875,7.917 -8.5,13.458l0.125,85.792l-28.084,0l0,-82.333c-0.375,-14.709 -7.916,-22.084 -22.541,-22.084c-11.25,0 -19.25,4.584 -23.917,13.75l0,90.667l-28.083,0l-0,-125.125l26.5,0l-0.042,0.042Z" style="fill:#3d3d3b;fill-rule:nonzero;"/><path d="M2495.32,615.862c-1.25,-2.375 -2.333,-6.292 -3.25,-11.667c-8.958,9.333 -19.875,14 -32.833,14c-12.959,0 -22.834,-3.583 -30.75,-10.75c-7.959,-7.167 -11.917,-16.042 -11.917,-26.583c0,-13.334 4.958,-23.584 14.875,-30.709c9.917,-7.125 24.083,-10.708 42.5,-10.708l17.25,0l0,-8.208c0,-6.459 -1.833,-11.667 -5.417,-15.542c-3.625,-3.875 -9.125,-5.833 -16.541,-5.833c-6.417,-0 -11.625,1.625 -15.709,4.791c-4.083,3.209 -6.125,7.25 -6.125,12.209l-28.083,-0c0,-6.875 2.25,-13.292 6.833,-19.25c4.542,-5.959 10.75,-10.667 18.542,-14.042c7.833,-3.375 16.542,-5.083 26.208,-5.083c14.625,-0 26.334,3.666 35.042,11.041c8.708,7.375 13.167,17.709 13.417,31.042l-0,56.417c-0,11.25 1.583,20.25 4.75,26.958l-0,1.958l-28.667,0l-0.125,-0.041Zm-30.875,-20.25c5.542,-0 10.75,-1.334 15.667,-4.042c4.875,-2.708 8.583,-6.333 11.041,-10.875l0,-23.583l-15.166,-0c-10.417,-0 -18.25,1.833 -23.459,5.416c-5.25,3.625 -7.875,8.75 -7.875,15.375c0,5.417 1.792,9.709 5.375,12.875c3.584,3.209 8.375,4.792 14.417,4.792l0,0.042Z" style="fill:#3d3d3b;fill-rule:nonzero;"/><path d="M2639.61,592.487l76.458,-0l0,23.375l-105.708,-0l-0,-168.375l29.25,-0l-0,145Z" style="fill:#3d3d3b;fill-rule:nonzero;"/><path d="M2810.57,615.862c-1.25,-2.375 -2.333,-6.292 -3.25,-11.667c-8.958,9.333 -19.875,14 -32.833,14c-12.959,0 -22.834,-3.583 -30.75,-10.75c-7.959,-7.167 -11.917,-16.042 -11.917,-26.583c0,-13.334 4.958,-23.584 14.875,-30.709c9.917,-7.125 24.083,-10.708 42.5,-10.708l17.25,0l0,-8.208c0,-6.459 -1.833,-11.667 -5.417,-15.542c-3.625,-3.875 -9.125,-5.833 -16.541,-5.833c-6.417,-0 -11.625,1.625 -15.709,4.791c-4.083,3.209 -6.125,7.25 -6.125,12.209l-28.083,-0c0,-6.875 2.25,-13.292 6.833,-19.25c4.542,-5.959 10.75,-10.667 18.542,-14.042c7.833,-3.375 16.542,-5.083 26.208,-5.083c14.625,-0 26.334,3.666 35.042,11.041c8.708,7.375 13.167,17.709 13.417,31.042l-0,56.417c-0,11.25 1.583,20.25 4.75,26.958l-0,1.958l-28.667,0l-0.125,-0.041Zm-30.875,-20.25c5.542,-0 10.75,-1.334 15.667,-4.042c4.875,-2.708 8.583,-6.333 11.041,-10.875l0,-23.583l-15.166,-0c-10.417,-0 -18.25,1.833 -23.459,5.416c-5.25,3.625 -7.875,8.75 -7.875,15.375c0,5.417 1.792,9.709 5.375,12.875c3.584,3.209 8.375,4.792 14.417,4.792l0,0.042Z" style="fill:#3d3d3b;fill-rule:nonzero;"/><path d="M2973.7,554.57c0,19.417 -4.333,34.875 -13,46.375c-8.667,11.5 -20.625,17.25 -35.792,17.25c-15.166,0 -26.041,-5.292 -34.208,-15.833l-1.375,13.541l-25.458,0l-0,-177.625l28.083,0l0,64.542c8.083,-9.542 19,-14.333 32.708,-14.333c15.25,-0 27.25,5.666 35.959,17c8.708,11.333 13.083,27.166 13.083,47.541l0,1.625l0,-0.083Zm-28.083,-2.417c-0,-13.583 -2.375,-23.75 -7.167,-30.541c-4.792,-6.792 -11.708,-10.167 -20.833,-10.167c-12.167,0 -20.75,5.333 -25.667,15.958l0,51.584c5,10.875 13.625,16.291 25.917,16.291c8.791,0 15.583,-3.291 20.333,-9.833c4.792,-6.542 7.25,-16.458 7.417,-29.708l-0,-3.584Z" style="fill:#3d3d3b;fill-rule:nonzero;"/><path d="M2991.99,552.153c-0,-12.25 2.416,-23.291 7.291,-33.125c4.875,-9.833 11.667,-17.375 20.459,-22.666c8.791,-5.292 18.875,-7.917 30.291,-7.917c16.875,0 30.584,5.417 41.125,16.292c10.542,10.875 16.209,25.291 17.042,43.25l0.125,6.583c0,12.333 -2.375,23.375 -7.125,33.083c-4.75,9.709 -11.542,17.25 -20.333,22.542c-8.834,5.333 -19.042,7.958 -30.584,7.958c-17.666,0 -31.791,-5.875 -42.375,-17.625c-10.583,-11.75 -15.916,-27.416 -15.916,-47l-0,-1.375Zm28.083,2.417c0,12.875 2.667,22.958 7.958,30.25c5.334,7.292 12.709,10.917 22.209,10.917c9.5,-0 16.875,-3.709 22.125,-11.084c5.291,-7.416 7.916,-18.208 7.916,-32.5c0,-12.625 -2.708,-22.666 -8.166,-30.083c-5.417,-7.417 -12.834,-11.083 -22.125,-11.083c-9.292,-0 -16.459,3.625 -21.875,10.916c-5.417,7.292 -8.084,18.167 -8.084,32.667l0.042,0Z" style="fill:#3d3d3b;fill-rule:nonzero;"/><path d="M3197.57,516.403c-3.708,-0.625 -7.5,-0.916 -11.458,-0.916c-12.875,-0 -21.542,4.916 -26,14.791l-0,85.584l-28.084,-0l0,-125.125l26.834,-0l0.708,14c6.792,-10.875 16.208,-16.292 28.208,-16.292c4,0 7.334,0.542 9.959,1.625l-0.125,26.375l-0.042,-0.042Z" style="fill:#3d3d3b;fill-rule:nonzero;"/><path d="M3286.61,615.862c-1.25,-2.375 -2.334,-6.292 -3.25,-11.667c-8.959,9.333 -19.875,14 -32.834,14c-12.958,0 -22.833,-3.583 -30.75,-10.75c-7.958,-7.167 -11.916,-16.042 -11.916,-26.583c-0,-13.334 4.958,-23.584 14.875,-30.709c9.916,-7.125 24.083,-10.708 42.5,-10.708l17.25,0l-0,-8.208c-0,-6.459 -1.834,-11.667 -5.417,-15.542c-3.625,-3.875 -9.125,-5.833 -16.542,-5.833c-6.416,-0 -11.625,1.625 -15.708,4.791c-4.083,3.209 -6.125,7.25 -6.125,12.209l-28.083,-0c-0,-6.875 2.25,-13.292 6.833,-19.25c4.542,-5.959 10.75,-10.667 18.542,-14.042c7.833,-3.375 16.541,-5.083 26.208,-5.083c14.625,-0 26.333,3.666 35.042,11.041c8.708,7.375 13.166,17.709 13.416,31.042l0,56.417c0,11.25 1.584,20.25 4.75,26.958l0,1.958l-28.666,0l-0.125,-0.041Zm-30.875,-20.25c5.541,-0 10.75,-1.334 15.666,-4.042c4.875,-2.708 8.584,-6.333 11.042,-10.875l0,-23.583l-15.167,-0c-10.416,-0 -18.25,1.833 -23.458,5.416c-5.25,3.625 -7.875,8.75 -7.875,15.375c0,5.417 1.792,9.709 5.375,12.875c3.583,3.209 8.375,4.792 14.417,4.792l-0,0.042Z" style="fill:#3d3d3b;fill-rule:nonzero;"/><rect x="3341.82" y="438.237" width="28.083" height="177.625" style="fill:#3d3d3b;fill-rule:nonzero;"/><path d="M1445.11,902.362c-17.792,-0 -32.25,-5.625 -43.292,-16.834c-11.083,-11.208 -16.583,-26.166 -16.583,-44.791l-0,-3.459c-0,-12.5 2.416,-23.666 7.208,-33.458c4.833,-9.833 11.583,-17.458 20.292,-22.958c8.708,-5.459 18.416,-8.209 29.125,-8.209c17.041,0 30.208,5.417 39.5,16.292c9.291,10.875 13.916,26.25 13.916,46.125l0,11.333l-81.75,0c0.834,10.334 4.292,18.5 10.334,24.5c6.041,6 13.666,9 22.833,9c12.875,0 23.375,-5.208 31.458,-15.625l15.167,14.459c-5,7.5 -11.708,13.291 -20.083,17.416c-8.375,4.125 -17.75,6.167 -28.167,6.167l0.042,0.042Zm-3.334,-107.209c-7.708,0 -13.916,2.709 -18.666,8.084c-4.75,5.416 -7.75,12.916 -9.084,22.541l53.542,0l0,-2.083c-0.625,-9.417 -3.125,-16.5 -7.5,-21.333c-4.375,-4.834 -10.5,-7.209 -18.25,-7.209l-0.042,0Z" style="fill:#3d3d3b;fill-rule:nonzero;"/><path d="M1543.2,774.903l0.792,14.459c9.25,-11.167 21.375,-16.75 36.416,-16.75c26.042,-0 39.334,14.916 39.792,44.75l0,82.666l-28.083,0l-0,-81.041c-0,-7.917 -1.709,-13.834 -5.125,-17.625c-3.417,-3.834 -9.042,-5.709 -16.834,-5.709c-11.333,0 -19.791,5.125 -25.333,15.375l0,89.042l-28.083,0l-0,-125.125l26.5,0l-0.042,-0.042Z" style="fill:#3d3d3b;fill-rule:nonzero;"/><path d="M1748.45,731.653l48.583,129.042l48.459,-129.042l37.833,0l0,168.375l-29.125,0l0,-55.5l2.875,-74.25l-49.708,129.75l-20.917,0l-49.625,-129.625l2.875,74.125l0,55.5l-29.125,0l0,-168.375l37.917,0l-0.042,0Z" style="fill:#3d3d3b;fill-rule:nonzero;"/><path d="M1970.24,902.362c-17.792,-0 -32.25,-5.625 -43.292,-16.834c-11.083,-11.208 -16.583,-26.166 -16.583,-44.791l-0,-3.459c-0,-12.5 2.416,-23.666 7.208,-33.458c4.833,-9.833 11.583,-17.458 20.292,-22.958c8.708,-5.459 18.416,-8.209 29.125,-8.209c17.041,0 30.208,5.417 39.5,16.292c9.291,10.875 13.916,26.25 13.916,46.125l0,11.333l-81.75,0c0.834,10.334 4.292,18.5 10.334,24.5c6.041,6 13.666,9 22.833,9c12.875,0 23.375,-5.208 31.458,-15.625l15.167,14.459c-5,7.5 -11.708,13.291 -20.083,17.416c-8.375,4.125 -17.75,6.167 -28.167,6.167l0.042,0.042Zm-3.334,-107.209c-7.708,0 -13.916,2.709 -18.666,8.084c-4.75,5.416 -7.75,12.916 -9.084,22.541l53.542,0l0,-2.083c-0.625,-9.417 -3.125,-16.5 -7.5,-21.333c-4.375,-4.834 -10.5,-7.209 -18.25,-7.209l-0.042,0Zm6.375,-72.75l32.042,0l-32.042,35.042l-22.541,0l22.541,-35.042Z" style="fill:#3d3d3b;fill-rule:nonzero;"/><path d="M2087.16,816.07l23.834,-41.167l31.208,0l-38.292,61.625l39.542,63.5l-31,0l-24.958,-42.791l-24.875,42.791l-31.209,0l39.542,-63.5l-38.167,-61.625l31,0l23.375,41.167Z" style="fill:#3d3d3b;fill-rule:nonzero;"/><path d="M2161.36,742.403c-0,-4.333 1.375,-7.916 4.125,-10.75c2.75,-2.833 6.666,-4.291 11.75,-4.291c5.083,-0 9,1.416 11.791,4.291c2.792,2.875 4.167,6.459 4.167,10.75c0,4.292 -1.375,7.75 -4.167,10.584c-2.791,2.833 -6.708,4.208 -11.791,4.208c-5.084,0 -9,-1.417 -11.75,-4.208c-2.75,-2.792 -4.125,-6.334 -4.125,-10.584Zm29.833,157.625l-28.083,0l-0,-125.125l28.083,0l0,125.125Z" style="fill:#3d3d3b;fill-rule:nonzero;"/><path d="M2273.2,879.903c7,0 12.833,-2.041 17.458,-6.125c4.625,-4.083 7.084,-9.125 7.417,-15.166l26.5,-0c-0.292,7.791 -2.75,15.041 -7.292,21.791c-4.541,6.75 -10.708,12.084 -18.5,16c-7.791,3.917 -16.208,5.917 -25.208,5.917c-17.5,0 -31.375,-5.667 -41.625,-17c-10.25,-11.333 -15.375,-27 -15.375,-46.958l0,-2.875c0,-19.042 5.083,-34.292 15.25,-45.75c10.167,-11.459 24.042,-17.167 41.625,-17.167c14.875,0 27,4.333 36.375,13c9.375,8.667 14.292,20.083 14.75,34.167l-26.5,-0c-0.292,-7.167 -2.75,-13.084 -7.333,-17.709c-4.584,-4.625 -10.417,-6.958 -17.5,-6.958c-9.084,0 -16.125,3.292 -21.042,9.875c-4.917,6.583 -7.458,16.583 -7.5,30l0,4.5c0,13.583 2.458,23.708 7.333,30.375c4.875,6.667 11.959,10 21.209,10l-0.042,0.083Z" style="fill:#3d3d3b;fill-rule:nonzero;"/><path d="M2340.49,836.32c-0,-12.25 2.416,-23.292 7.291,-33.125c4.875,-9.833 11.667,-17.375 20.459,-22.667c8.791,-5.291 18.875,-7.916 30.291,-7.916c16.875,-0 30.584,5.416 41.125,16.291c10.542,10.875 16.209,25.292 17.042,43.25l0.125,6.584c0,12.333 -2.375,23.375 -7.125,33.083c-4.75,9.708 -11.542,17.25 -20.333,22.542c-8.834,5.333 -19.042,7.958 -30.584,7.958c-17.666,0 -31.791,-5.875 -42.375,-17.625c-10.583,-11.75 -15.916,-27.417 -15.916,-47l-0,-1.375Zm28.083,2.417c0,12.875 2.667,22.958 7.958,30.25c5.334,7.291 12.709,10.916 22.209,10.916c9.5,0 16.875,-3.708 22.125,-11.083c5.291,-7.417 7.916,-18.208 7.916,-32.5c0,-12.625 -2.708,-22.667 -8.166,-30.083c-5.417,-7.417 -12.834,-11.084 -22.125,-11.084c-9.292,0 -16.459,3.625 -21.875,10.917c-5.417,7.292 -8.084,18.167 -8.084,32.667l0.042,-0Z" style="fill:#3d3d3b;fill-rule:nonzero;"/></g><div xmlns="" id="divScriptsUsed" style="display: none"/><script xmlns="" id="globalVarsDetection" src="moz-extension://9cc77393-7a43-4dee-a1f9-cfd8ab6d3a07/js/wrs_env.js"/></svg>